<mxfile host="app.diagrams.net" modified="2023-09-12T11:55:03.851Z" agent="Mozilla/5.0 (Windows NT 10.0; Win64; x64) AppleWebKit/537.36 (KHTML, like Gecko) Chrome/109.0.0.0 Safari/537.36" etag="TWOAdDRL9POaFRxC3xVk" version="21.7.4" type="device">
  <diagram id="5Tio_LMKGwnD6LN70yWK" name="Page-1">
    <mxGraphModel dx="1114" dy="560" grid="1" gridSize="10" guides="1" tooltips="1" connect="1" arrows="1" fold="1" page="1" pageScale="1" pageWidth="850" pageHeight="1100" math="0" shadow="0">
      <root>
        <mxCell id="0" />
        <mxCell id="1" parent="0" />
        <mxCell id="JtprS6Em89Ml2vkK_7qS-2" value="" style="ellipse;fillColor=strokeColor;" parent="1" vertex="1">
          <mxGeometry x="365" y="20" width="30" height="30" as="geometry" />
        </mxCell>
        <mxCell id="JtprS6Em89Ml2vkK_7qS-3" value="User Enters&lt;br&gt;Keywords" style="html=1;align=center;verticalAlign=top;rounded=1;absoluteArcSize=1;arcSize=10;dashed=0;" parent="1" vertex="1">
          <mxGeometry x="310" y="90" width="140" height="40" as="geometry" />
        </mxCell>
        <mxCell id="JtprS6Em89Ml2vkK_7qS-4" value="Connect to&lt;br&gt;Server" style="html=1;align=center;verticalAlign=top;rounded=1;absoluteArcSize=1;arcSize=10;dashed=0;" parent="1" vertex="1">
          <mxGeometry x="310" y="365" width="140" height="40" as="geometry" />
        </mxCell>
        <mxCell id="JtprS6Em89Ml2vkK_7qS-5" value="Server compares&lt;br&gt;query with data" style="html=1;align=center;verticalAlign=top;rounded=1;absoluteArcSize=1;arcSize=10;dashed=0;" parent="1" vertex="1">
          <mxGeometry x="310" y="435" width="140" height="40" as="geometry" />
        </mxCell>
        <mxCell id="JtprS6Em89Ml2vkK_7qS-6" value="" style="rhombus;" parent="1" vertex="1">
          <mxGeometry x="365" y="505" width="30" height="30" as="geometry" />
        </mxCell>
        <mxCell id="JtprS6Em89Ml2vkK_7qS-7" value="&lt;span style=&quot;font-weight: normal;&quot;&gt;&lt;font style=&quot;font-size: 13px;&quot;&gt;Match found?&lt;/font&gt;&lt;/span&gt;" style="text;strokeColor=none;fillColor=none;html=1;fontSize=24;fontStyle=1;verticalAlign=middle;align=center;" parent="1" vertex="1">
          <mxGeometry x="270" y="490" width="100" height="40" as="geometry" />
        </mxCell>
        <mxCell id="JtprS6Em89Ml2vkK_7qS-8" value="" style="edgeStyle=segmentEdgeStyle;endArrow=classic;html=1;rounded=0;fontSize=13;exitX=0.5;exitY=1;exitDx=0;exitDy=0;entryX=0.5;entryY=0;entryDx=0;entryDy=0;" parent="1" source="JtprS6Em89Ml2vkK_7qS-5" target="JtprS6Em89Ml2vkK_7qS-6" edge="1">
          <mxGeometry width="50" height="50" relative="1" as="geometry">
            <mxPoint x="400" y="545" as="sourcePoint" />
            <mxPoint x="370" y="595" as="targetPoint" />
          </mxGeometry>
        </mxCell>
        <mxCell id="JtprS6Em89Ml2vkK_7qS-9" value="" style="edgeStyle=segmentEdgeStyle;endArrow=classic;html=1;rounded=0;fontSize=13;exitX=0.5;exitY=1;exitDx=0;exitDy=0;entryX=0.5;entryY=0;entryDx=0;entryDy=0;" parent="1" source="JtprS6Em89Ml2vkK_7qS-4" target="JtprS6Em89Ml2vkK_7qS-5" edge="1">
          <mxGeometry width="50" height="50" relative="1" as="geometry">
            <mxPoint x="400" y="545" as="sourcePoint" />
            <mxPoint x="450" y="495" as="targetPoint" />
          </mxGeometry>
        </mxCell>
        <mxCell id="JtprS6Em89Ml2vkK_7qS-12" value="" style="edgeStyle=segmentEdgeStyle;endArrow=classic;html=1;rounded=0;fontSize=13;exitX=0.5;exitY=1;exitDx=0;exitDy=0;entryX=0.5;entryY=0;entryDx=0;entryDy=0;" parent="1" source="JtprS6Em89Ml2vkK_7qS-2" target="JtprS6Em89Ml2vkK_7qS-3" edge="1">
          <mxGeometry width="50" height="50" relative="1" as="geometry">
            <mxPoint x="400" y="340" as="sourcePoint" />
            <mxPoint x="450" y="290" as="targetPoint" />
          </mxGeometry>
        </mxCell>
        <mxCell id="JtprS6Em89Ml2vkK_7qS-13" value="&lt;font style=&quot;font-size: 12px;&quot;&gt;Return error&lt;br&gt;message&lt;/font&gt;" style="html=1;align=center;verticalAlign=top;rounded=1;absoluteArcSize=1;arcSize=10;dashed=0;fontSize=13;" parent="1" vertex="1">
          <mxGeometry x="580" y="500" width="140" height="40" as="geometry" />
        </mxCell>
        <mxCell id="JtprS6Em89Ml2vkK_7qS-17" value="&lt;p style=&quot;line-height: 80%;&quot;&gt;&lt;span style=&quot;font-weight: normal; font-size: 13px;&quot;&gt;Re-enter&lt;br&gt;keyword&lt;/span&gt;&lt;/p&gt;" style="text;strokeColor=none;fillColor=none;html=1;fontSize=24;fontStyle=1;verticalAlign=middle;align=center;" parent="1" vertex="1">
          <mxGeometry x="640" y="200" width="100" height="40" as="geometry" />
        </mxCell>
        <mxCell id="JtprS6Em89Ml2vkK_7qS-18" value="&lt;span style=&quot;font-weight: normal;&quot;&gt;&lt;font style=&quot;font-size: 13px;&quot;&gt;No&lt;/font&gt;&lt;/span&gt;" style="text;strokeColor=none;fillColor=none;html=1;fontSize=24;fontStyle=1;verticalAlign=middle;align=center;" parent="1" vertex="1">
          <mxGeometry x="450" y="480" width="100" height="40" as="geometry" />
        </mxCell>
        <mxCell id="JtprS6Em89Ml2vkK_7qS-19" value="&lt;span style=&quot;font-size: 12px;&quot;&gt;Return matched&lt;br&gt;&lt;/span&gt;Results" style="html=1;align=center;verticalAlign=top;rounded=1;absoluteArcSize=1;arcSize=10;dashed=0;fontSize=13;" parent="1" vertex="1">
          <mxGeometry x="310" y="585" width="140" height="40" as="geometry" />
        </mxCell>
        <mxCell id="JtprS6Em89Ml2vkK_7qS-20" value="Display results&lt;br&gt;to the User" style="html=1;align=center;verticalAlign=top;rounded=1;absoluteArcSize=1;arcSize=10;dashed=0;fontSize=12;" parent="1" vertex="1">
          <mxGeometry x="310" y="665" width="140" height="40" as="geometry" />
        </mxCell>
        <mxCell id="JtprS6Em89Ml2vkK_7qS-21" value="" style="ellipse;html=1;shape=endState;fillColor=strokeColor;fontSize=12;" parent="1" vertex="1">
          <mxGeometry x="365" y="750" width="30" height="30" as="geometry" />
        </mxCell>
        <mxCell id="JtprS6Em89Ml2vkK_7qS-22" value="" style="edgeStyle=segmentEdgeStyle;endArrow=classic;html=1;rounded=0;fontSize=12;exitX=0.5;exitY=1;exitDx=0;exitDy=0;entryX=0.5;entryY=0;entryDx=0;entryDy=0;" parent="1" source="JtprS6Em89Ml2vkK_7qS-20" target="JtprS6Em89Ml2vkK_7qS-21" edge="1">
          <mxGeometry width="50" height="50" relative="1" as="geometry">
            <mxPoint x="400" y="695" as="sourcePoint" />
            <mxPoint x="380" y="745" as="targetPoint" />
          </mxGeometry>
        </mxCell>
        <mxCell id="JtprS6Em89Ml2vkK_7qS-24" value="" style="edgeStyle=segmentEdgeStyle;endArrow=classic;html=1;rounded=0;fontSize=12;exitX=0.5;exitY=1;exitDx=0;exitDy=0;" parent="1" source="JtprS6Em89Ml2vkK_7qS-19" target="JtprS6Em89Ml2vkK_7qS-20" edge="1">
          <mxGeometry width="50" height="50" relative="1" as="geometry">
            <mxPoint x="400" y="695" as="sourcePoint" />
            <mxPoint x="450" y="645" as="targetPoint" />
          </mxGeometry>
        </mxCell>
        <mxCell id="JtprS6Em89Ml2vkK_7qS-26" value="&lt;span style=&quot;font-weight: normal;&quot;&gt;&lt;font style=&quot;font-size: 13px;&quot;&gt;Yes&lt;/font&gt;&lt;/span&gt;" style="text;strokeColor=none;fillColor=none;html=1;fontSize=24;fontStyle=1;verticalAlign=middle;align=center;" parent="1" vertex="1">
          <mxGeometry x="350" y="530" width="100" height="40" as="geometry" />
        </mxCell>
        <mxCell id="JtprS6Em89Ml2vkK_7qS-30" value="" style="edgeStyle=segmentEdgeStyle;endArrow=classic;html=1;rounded=0;fontSize=13;exitX=0.5;exitY=1;exitDx=0;exitDy=0;entryX=0.5;entryY=0;entryDx=0;entryDy=0;" parent="1" source="JtprS6Em89Ml2vkK_7qS-6" target="JtprS6Em89Ml2vkK_7qS-19" edge="1">
          <mxGeometry width="50" height="50" relative="1" as="geometry">
            <mxPoint x="330" y="555" as="sourcePoint" />
            <mxPoint x="450" y="665" as="targetPoint" />
            <Array as="points">
              <mxPoint x="380" y="550" />
              <mxPoint x="380" y="550" />
            </Array>
          </mxGeometry>
        </mxCell>
        <mxCell id="cwrUXDnnUu3Mgv-FZd9t-3" value="" style="html=1;points=[];perimeter=orthogonalPerimeter;fillColor=strokeColor;rotation=90;" vertex="1" parent="1">
          <mxGeometry x="377.5" y="-40" width="5" height="470" as="geometry" />
        </mxCell>
        <mxCell id="cwrUXDnnUu3Mgv-FZd9t-4" value="" style="edgeStyle=segmentEdgeStyle;endArrow=classic;html=1;curved=0;rounded=0;endSize=8;startSize=8;exitX=0.5;exitY=1;exitDx=0;exitDy=0;entryX=-0.3;entryY=0.498;entryDx=0;entryDy=0;entryPerimeter=0;" edge="1" parent="1" source="JtprS6Em89Ml2vkK_7qS-3" target="cwrUXDnnUu3Mgv-FZd9t-3">
          <mxGeometry width="50" height="50" relative="1" as="geometry">
            <mxPoint x="590" y="320" as="sourcePoint" />
            <mxPoint x="640" y="270" as="targetPoint" />
          </mxGeometry>
        </mxCell>
        <mxCell id="cwrUXDnnUu3Mgv-FZd9t-5" value="Places" style="html=1;align=center;verticalAlign=top;rounded=1;absoluteArcSize=1;arcSize=10;dashed=0;whiteSpace=wrap;" vertex="1" parent="1">
          <mxGeometry x="310" y="240" width="140" height="40" as="geometry" />
        </mxCell>
        <mxCell id="cwrUXDnnUu3Mgv-FZd9t-6" value="Preferences" style="html=1;align=center;verticalAlign=top;rounded=1;absoluteArcSize=1;arcSize=10;dashed=0;whiteSpace=wrap;" vertex="1" parent="1">
          <mxGeometry x="150" y="240" width="140" height="40" as="geometry" />
        </mxCell>
        <mxCell id="cwrUXDnnUu3Mgv-FZd9t-7" value="Dates" style="html=1;align=center;verticalAlign=top;rounded=1;absoluteArcSize=1;arcSize=10;dashed=0;whiteSpace=wrap;" vertex="1" parent="1">
          <mxGeometry x="470" y="240" width="140" height="40" as="geometry" />
        </mxCell>
        <mxCell id="cwrUXDnnUu3Mgv-FZd9t-8" value="" style="edgeStyle=segmentEdgeStyle;endArrow=classic;html=1;curved=0;rounded=0;endSize=8;startSize=8;exitX=1.3;exitY=0.502;exitDx=0;exitDy=0;exitPerimeter=0;entryX=0.5;entryY=0;entryDx=0;entryDy=0;" edge="1" parent="1" source="cwrUXDnnUu3Mgv-FZd9t-3" target="cwrUXDnnUu3Mgv-FZd9t-5">
          <mxGeometry width="50" height="50" relative="1" as="geometry">
            <mxPoint x="590" y="320" as="sourcePoint" />
            <mxPoint x="640" y="270" as="targetPoint" />
          </mxGeometry>
        </mxCell>
        <mxCell id="cwrUXDnnUu3Mgv-FZd9t-9" value="" style="edgeStyle=segmentEdgeStyle;endArrow=classic;html=1;curved=0;rounded=0;endSize=8;startSize=8;entryX=0.5;entryY=0;entryDx=0;entryDy=0;exitX=0.7;exitY=0.155;exitDx=0;exitDy=0;exitPerimeter=0;" edge="1" parent="1" source="cwrUXDnnUu3Mgv-FZd9t-3" target="cwrUXDnnUu3Mgv-FZd9t-7">
          <mxGeometry width="50" height="50" relative="1" as="geometry">
            <mxPoint x="550" y="210" as="sourcePoint" />
            <mxPoint x="640" y="270" as="targetPoint" />
          </mxGeometry>
        </mxCell>
        <mxCell id="cwrUXDnnUu3Mgv-FZd9t-10" value="" style="edgeStyle=segmentEdgeStyle;endArrow=classic;html=1;curved=0;rounded=0;endSize=8;startSize=8;exitX=0.3;exitY=0.838;exitDx=0;exitDy=0;exitPerimeter=0;entryX=0.5;entryY=0;entryDx=0;entryDy=0;" edge="1" parent="1" source="cwrUXDnnUu3Mgv-FZd9t-3" target="cwrUXDnnUu3Mgv-FZd9t-6">
          <mxGeometry width="50" height="50" relative="1" as="geometry">
            <mxPoint x="590" y="320" as="sourcePoint" />
            <mxPoint x="640" y="270" as="targetPoint" />
          </mxGeometry>
        </mxCell>
        <mxCell id="cwrUXDnnUu3Mgv-FZd9t-12" value="" style="html=1;points=[];perimeter=orthogonalPerimeter;fillColor=strokeColor;rotation=90;" vertex="1" parent="1">
          <mxGeometry x="377.5" y="90" width="5" height="470" as="geometry" />
        </mxCell>
        <mxCell id="cwrUXDnnUu3Mgv-FZd9t-13" value="" style="edgeStyle=segmentEdgeStyle;endArrow=classic;html=1;curved=0;rounded=0;endSize=8;startSize=8;exitX=0.5;exitY=1;exitDx=0;exitDy=0;entryX=1.1;entryY=0.162;entryDx=0;entryDy=0;entryPerimeter=0;" edge="1" parent="1" source="cwrUXDnnUu3Mgv-FZd9t-7" target="cwrUXDnnUu3Mgv-FZd9t-12">
          <mxGeometry width="50" height="50" relative="1" as="geometry">
            <mxPoint x="590" y="370" as="sourcePoint" />
            <mxPoint x="540" y="310" as="targetPoint" />
          </mxGeometry>
        </mxCell>
        <mxCell id="cwrUXDnnUu3Mgv-FZd9t-14" value="" style="edgeStyle=segmentEdgeStyle;endArrow=classic;html=1;curved=0;rounded=0;endSize=8;startSize=8;exitX=0.5;exitY=1;exitDx=0;exitDy=0;entryX=1.1;entryY=0.5;entryDx=0;entryDy=0;entryPerimeter=0;" edge="1" parent="1" source="cwrUXDnnUu3Mgv-FZd9t-5" target="cwrUXDnnUu3Mgv-FZd9t-12">
          <mxGeometry width="50" height="50" relative="1" as="geometry">
            <mxPoint x="590" y="370" as="sourcePoint" />
            <mxPoint x="640" y="320" as="targetPoint" />
          </mxGeometry>
        </mxCell>
        <mxCell id="cwrUXDnnUu3Mgv-FZd9t-15" value="" style="edgeStyle=segmentEdgeStyle;endArrow=classic;html=1;curved=0;rounded=0;endSize=8;startSize=8;exitX=0.5;exitY=1;exitDx=0;exitDy=0;entryX=0.7;entryY=0.84;entryDx=0;entryDy=0;entryPerimeter=0;" edge="1" parent="1" source="cwrUXDnnUu3Mgv-FZd9t-6" target="cwrUXDnnUu3Mgv-FZd9t-12">
          <mxGeometry width="50" height="50" relative="1" as="geometry">
            <mxPoint x="590" y="370" as="sourcePoint" />
            <mxPoint x="640" y="320" as="targetPoint" />
          </mxGeometry>
        </mxCell>
        <mxCell id="cwrUXDnnUu3Mgv-FZd9t-16" value="" style="edgeStyle=segmentEdgeStyle;endArrow=classic;html=1;curved=0;rounded=0;endSize=8;startSize=8;exitX=0.7;exitY=0.502;exitDx=0;exitDy=0;exitPerimeter=0;entryX=0.5;entryY=0;entryDx=0;entryDy=0;" edge="1" parent="1" source="cwrUXDnnUu3Mgv-FZd9t-12" target="JtprS6Em89Ml2vkK_7qS-4">
          <mxGeometry width="50" height="50" relative="1" as="geometry">
            <mxPoint x="590" y="470" as="sourcePoint" />
            <mxPoint x="640" y="420" as="targetPoint" />
          </mxGeometry>
        </mxCell>
        <mxCell id="cwrUXDnnUu3Mgv-FZd9t-19" value="" style="edgeStyle=segmentEdgeStyle;endArrow=classic;html=1;curved=0;rounded=0;endSize=8;startSize=8;exitX=1;exitY=0.5;exitDx=0;exitDy=0;entryX=0;entryY=0.5;entryDx=0;entryDy=0;" edge="1" parent="1" source="JtprS6Em89Ml2vkK_7qS-6" target="JtprS6Em89Ml2vkK_7qS-13">
          <mxGeometry width="50" height="50" relative="1" as="geometry">
            <mxPoint x="580" y="475" as="sourcePoint" />
            <mxPoint x="630" y="425" as="targetPoint" />
          </mxGeometry>
        </mxCell>
        <mxCell id="cwrUXDnnUu3Mgv-FZd9t-20" value="" style="edgeStyle=segmentEdgeStyle;endArrow=classic;html=1;curved=0;rounded=0;endSize=8;startSize=8;entryX=1;entryY=0.5;entryDx=0;entryDy=0;exitX=0.5;exitY=0;exitDx=0;exitDy=0;" edge="1" parent="1" source="JtprS6Em89Ml2vkK_7qS-13" target="JtprS6Em89Ml2vkK_7qS-3">
          <mxGeometry width="50" height="50" relative="1" as="geometry">
            <mxPoint x="680" y="390" as="sourcePoint" />
            <mxPoint x="640" y="420" as="targetPoint" />
            <Array as="points">
              <mxPoint x="650" y="110" />
            </Array>
          </mxGeometry>
        </mxCell>
      </root>
    </mxGraphModel>
  </diagram>
</mxfile>
